PathFileType  4	(X/Y/Z) C:\Users\antoi\Documents\MyRepositories\mobilecap\ResultsAnalysis
DataRate	CameraRate	NumFrames	NumMarkers	Units	OrigDataRate	OrigDataStartFrame	OrigNumFrames
100.0	100.0	4	51	mm	100.0	53	141
Frame#	Time	r_knee			r_shank_antsup			r_ankle			r_calc			r_5meta			r_toe			L_knee			L_shank_antsup			L_ankle			L_calc			L_5meta			L_toe			r_sh2			r_sh3			r_sh4			L_sh2			L_sh3			r_thigh1			r_thigh2			r_thigh3			r_thigh4			r_thigh5			L_thigh1			L_thigh2			L_thigh3			L_thigh4			r.ASIS			r.PSIS			L.ASIS			L.PSIS			C7			R_Shoulder			L_Shoulder			R_Sternum			L_Sternum			R_humerus			R_elbow_med			R_elbow_lat			R_forearm			R_wrist_radius			R_wrist_ulna			L_humerus			L_elbow_med			L_elbow_lat			L_forearm			L_wrist_radius			L_wrist_ulna			R_HJC			L_HJC			R_HJC_reg			L_HJC_reg			
		X1	Y1	Z1	X2	Y2	Z2	X3	Y3	Z3	X4	Y4	Z4	X5	Y5	Z5	X6	Y6	Z6	X7	Y7	Z7	X8	Y8	Z8	X9	Y9	Z9	X10	Y10	Z10	X11	Y11	Z11	X12	Y12	Z12	X13	Y13	Z13	X14	Y14	Z14	X15	Y15	Z15	X16	Y16	Z16	X17	Y17	Z17	X18	Y18	Z18	X19	Y19	Z19	X20	Y20	Z20	X21	Y21	Z21	X22	Y22	Z22	X23	Y23	Z23	X24	Y24	Z24	X25	Y25	Z25	X26	Y26	Z26	X27	Y27	Z27	X28	Y28	Z28	X29	Y29	Z29	X30	Y30	Z30	X31	Y31	Z31	X32	Y32	Z32	X33	Y33	Z33	X34	Y34	Z34	X35	Y35	Z35	X36	Y36	Z36	X37	Y37	Z37	X38	Y38	Z38	X39	Y39	Z39	X40	Y40	Z40	X41	Y41	Z41	X42	Y42	Z42	X43	Y43	Z43	X44	Y44	Z44	X45	Y45	Z45	X46	Y46	Z46	X47	Y47	Z47	X48	Y48	Z48	X49	Y49	Z49	X50	Y50	Z50	X51	Y51	Z51	

53	0.52000000	250.98622	479.41737	-89.36927	257.23945	378.32982	-107.31867	87.28350	103.13911	-134.87812	18.85510	70.62206	-179.07628	198.95124	45.84847	-91.09608	234.39647	68.08320	-150.03080	522.76295	504.43578	-377.35185	591.06002	451.78415	-369.35746	678.70438	124.56460	-384.01005	633.84132	50.70228	-333.82615	799.59052	114.87275	-421.11159	827.09579	161.85963	-367.23938	217.00193	273.34312	-119.58373	199.82863	393.07680	-59.47137	153.15486	288.33740	-65.89122	510.72210	432.60409	-408.75657	555.71535	319.29138	-421.92232	375.34825	739.37523	-52.08091	355.18210	632.23844	-75.80632	301.00027	611.71328	-41.32986	267.07338	748.45464	-16.49399	251.10321	638.90401	-49.64728	488.07332	754.71055	-367.07804	551.43020	630.63734	-351.03776	403.34255	706.47545	-420.14223	459.55497	587.49205	-393.62816	427.03254	937.58983	-80.62160	221.40018	971.85665	-179.28430	435.52360	941.46364	-336.49885	227.68853	963.65645	-271.18902	293.12055	1427.59663	-261.36930	380.91050	1418.17648	-97.38758	361.71898	1357.89405	-410.17745	412.44996	1349.73737	-229.37577	409.02750	1342.35208	-274.36654	441.57020	1296.24189	-44.69720	372.92388	1087.72386	-28.09399	402.53090	1108.73134	27.33733	472.14400	1055.56539	35.43891	545.88348	902.35142	6.56101	520.97247	900.06725	50.85767	373.82714	1211.59145	-454.01805	298.19912	1021.27895	-390.20339	300.01106	1029.22989	-468.97422	345.91772	970.87262	-490.35490	396.19758	799.91012	-478.49425	353.01018	801.51632	-504.88564	343.76413	850.54774	-113.97468	355.96150	851.54147	-303.14472	348.85481	873.47689	-115.93117	360.34393	858.49476	-283.86943	
54	0.53000000	258.34732	478.12773	-90.13585	262.92955	376.87331	-107.90357	88.29990	104.39943	-135.14344	19.44984	72.56628	-179.36864	199.07393	45.76977	-91.10737	234.82281	67.78198	-149.96884	537.62183	503.59367	-377.44167	605.55453	450.38822	-369.68483	692.93850	123.13483	-384.56300	648.78219	48.78628	-334.41649	813.78843	114.60543	-421.99573	840.98072	161.72004	-368.09212	220.87610	272.59539	-120.02478	205.75841	392.70471	-60.18736	157.22904	288.81204	-66.46191	525.28817	431.29365	-409.30656	570.38886	318.18046	-422.50533	386.13054	736.47060	-52.23573	364.77912	629.64065	-76.16256	310.18343	609.77532	-41.91707	277.93393	746.78920	-16.97071	260.66137	637.61820	-50.45521	501.95307	753.43208	-367.46088	565.51555	629.49651	-351.07219	417.48720	705.02420	-420.63426	473.83929	586.14299	-393.98901	439.56348	934.71056	-80.28763	234.44215	969.60567	-180.02286	449.07492	939.18544	-336.45126	240.76271	961.30298	-271.78686	306.64820	1424.70444	-265.44524	394.59114	1416.69741	-101.38707	375.67988	1352.57836	-413.40684	425.94583	1346.58088	-232.52702	422.52680	1338.64868	-277.41468	455.73679	1295.08984	-48.21559	387.77620	1086.46981	-30.19573	417.26741	1107.89982	25.02282	487.10801	1055.01525	33.11043	561.40988	902.00134	4.70004	536.64338	899.81804	49.09123	387.06691	1205.96088	-456.05665	310.39886	1016.27968	-391.61403	312.14109	1023.99661	-470.36566	357.61968	965.30911	-491.69022	406.88314	794.11969	-479.49356	363.50853	795.82296	-505.56133	356.28787	847.89251	-114.34965	369.24117	849.23602	-303.46720	361.49995	871.24235	-115.62581	373.07833	856.03324	-283.76020	
55	0.54000000	266.18185	476.83153	-91.08690	269.00875	375.42466	-108.68143	89.45738	105.90614	-135.39359	20.15414	74.89160	-179.62471	199.22529	45.72292	-91.11970	235.33323	67.47148	-149.91189	553.09743	502.99171	-377.26360	620.30298	448.51388	-369.72433	704.41628	120.79494	-384.83524	660.19383	46.52510	-334.76039	825.10951	112.19712	-422.45989	852.52920	159.10474	-368.51962	225.06032	271.91221	-120.59839	212.15533	392.38322	-61.04915	161.68644	289.40319	-67.11612	539.97839	430.20959	-409.55973	584.15510	316.95122	-422.72185	397.17453	733.60156	-52.59032	374.69195	627.05438	-76.69323	319.73185	607.79470	-42.67855	289.07524	745.06728	-17.54028	270.55144	636.23150	-51.35326	516.05243	752.51802	-368.31898	580.13143	628.91396	-351.33546	431.80337	703.55960	-421.18096	488.67027	585.00459	-394.22063	452.27276	931.77618	-80.05307	247.78503	967.40669	-180.51391	462.78728	937.12411	-336.57848	254.00758	959.16822	-272.12943	320.20324	1421.84161	-269.60328	408.38809	1415.31891	-105.55222	389.69542	1347.32824	-416.73275	439.54314	1343.51954	-235.84261	436.01768	1335.02752	-280.60045	469.97151	1294.00981	-51.93327	402.42559	1085.36294	-32.52832	431.80797	1107.15862	22.52373	501.82426	1054.50538	30.64268	576.59496	901.64146	2.73977	551.94346	899.57250	47.19512	400.46946	1200.42748	-458.16928	322.79215	1011.38991	-393.10426	324.47869	1018.84176	-471.83594	369.49801	959.82124	-493.07659	417.69735	788.38698	-480.50004	374.14233	790.20198	-506.27525	369.09550	845.21422	-114.81644	382.61390	847.14209	-303.88750	374.46125	868.89410	-115.43034	385.89653	853.75397	-283.85682	
56	0.55000000	274.48705	475.56744	-92.19773	275.49265	374.03289	-109.62780	90.77371	107.70189	-135.63607	21.03101	77.64039	-179.85587	199.42044	45.73011	-91.13111	235.92294	67.13529	-149.84963	568.85128	502.44441	-376.85605	635.13289	446.17943	-369.41617	713.57756	117.82058	-384.84284	668.47647	44.23121	-334.93813	834.01313	107.92512	-422.44269	862.17423	154.23319	-368.40104	229.56349	271.33644	-121.28593	219.00982	392.15722	-62.04678	166.52854	290.16623	-67.85056	554.69250	429.24199	-409.50846	597.05503	315.51966	-422.55544	408.48838	730.80280	-53.12521	384.91593	624.51573	-77.36004	329.63234	605.82027	-43.59851	300.45466	743.34300	-18.23325	280.76510	634.80113	-52.35785	530.33459	751.85033	-369.62062	595.12392	628.70383	-351.85544	446.18715	702.04337	-421.73821	503.85743	583.99153	-394.30572	465.21670	928.81735	-79.93883	261.44544	965.26809	-180.79918	476.68659	935.26422	-336.91315	267.46523	957.22167	-272.25544	333.80383	1419.00835	-273.84742	422.33213	1414.05895	-109.88568	403.72505	1342.16040	-420.14976	453.23448	1340.57321	-239.32934	449.50118	1331.51105	-283.93213	484.26658	1293.01354	-55.83829	416.83100	1084.43136	-35.04862	446.14566	1106.53493	19.86596	516.30142	1054.05409	28.04586	591.43235	901.29241	0.67723	566.85992	899.33838	45.16504	414.00975	1195.01539	-460.34730	335.40958	1006.62227	-394.65491	337.02819	1013.77460	-473.37403	381.55685	954.43559	-494.50504	428.64753	782.73524	-481.50855	384.93012	784.68349	-507.02564	382.23135	842.53564	-115.38532	396.12157	845.24142	-304.41725	387.75238	866.47563	-115.36064	398.85740	851.63073	-284.17412	
